<mxfile host="app.diagrams.net" agent="Mozilla/5.0 (Windows NT 10.0; Win64; x64) AppleWebKit/537.36 (KHTML, like Gecko) Chrome/127.0.0.0 Safari/537.36" version="24.7.7">
  <diagram name="第 1 页" id="TupFjeK_ej2wpmpW3R1D">
    <mxGraphModel dx="1221" dy="725" grid="1" gridSize="10" guides="1" tooltips="1" connect="1" arrows="1" fold="1" page="1" pageScale="1" pageWidth="827" pageHeight="1169" math="0" shadow="0">
      <root>
        <mxCell id="0" />
        <mxCell id="1" parent="0" />
        <mxCell id="JdrCi-qgXTBV3TVLPhcE-6" value="" style="rounded=0;whiteSpace=wrap;html=1;fillColor=none;dashed=1;" vertex="1" parent="1">
          <mxGeometry x="190" y="240" width="410" height="230" as="geometry" />
        </mxCell>
        <mxCell id="JdrCi-qgXTBV3TVLPhcE-8" style="rounded=0;orthogonalLoop=1;jettySize=auto;html=1;exitX=1;exitY=0.5;exitDx=0;exitDy=0;entryX=0;entryY=0.5;entryDx=0;entryDy=0;" edge="1" parent="1" source="JdrCi-qgXTBV3TVLPhcE-1" target="JdrCi-qgXTBV3TVLPhcE-3">
          <mxGeometry relative="1" as="geometry" />
        </mxCell>
        <mxCell id="JdrCi-qgXTBV3TVLPhcE-1" value="二维地图创建加载" style="rounded=1;whiteSpace=wrap;html=1;" vertex="1" parent="1">
          <mxGeometry x="40" y="330" width="120" height="60" as="geometry" />
        </mxCell>
        <mxCell id="JdrCi-qgXTBV3TVLPhcE-14" style="rounded=0;orthogonalLoop=1;jettySize=auto;html=1;exitX=0;exitY=0.5;exitDx=0;exitDy=0;entryX=1;entryY=0.5;entryDx=0;entryDy=0;" edge="1" parent="1" source="JdrCi-qgXTBV3TVLPhcE-2" target="JdrCi-qgXTBV3TVLPhcE-7">
          <mxGeometry relative="1" as="geometry" />
        </mxCell>
        <mxCell id="JdrCi-qgXTBV3TVLPhcE-2" value="三维地图创建加载" style="rounded=1;whiteSpace=wrap;html=1;" vertex="1" parent="1">
          <mxGeometry x="620" y="330" width="120" height="60" as="geometry" />
        </mxCell>
        <mxCell id="JdrCi-qgXTBV3TVLPhcE-9" style="edgeStyle=orthogonalEdgeStyle;rounded=0;orthogonalLoop=1;jettySize=auto;html=1;exitX=1;exitY=0.5;exitDx=0;exitDy=0;" edge="1" parent="1" source="JdrCi-qgXTBV3TVLPhcE-3" target="JdrCi-qgXTBV3TVLPhcE-4">
          <mxGeometry relative="1" as="geometry" />
        </mxCell>
        <mxCell id="JdrCi-qgXTBV3TVLPhcE-3" value="三维地图容器添加" style="rounded=1;whiteSpace=wrap;html=1;" vertex="1" parent="1">
          <mxGeometry x="240" y="260" width="120" height="60" as="geometry" />
        </mxCell>
        <mxCell id="JdrCi-qgXTBV3TVLPhcE-10" style="rounded=0;orthogonalLoop=1;jettySize=auto;html=1;exitX=1;exitY=0.5;exitDx=0;exitDy=0;entryX=0;entryY=0.5;entryDx=0;entryDy=0;" edge="1" parent="1" source="JdrCi-qgXTBV3TVLPhcE-4" target="JdrCi-qgXTBV3TVLPhcE-2">
          <mxGeometry relative="1" as="geometry" />
        </mxCell>
        <mxCell id="JdrCi-qgXTBV3TVLPhcE-4" value="三维模型标绘初始化" style="rounded=1;whiteSpace=wrap;html=1;" vertex="1" parent="1">
          <mxGeometry x="440" y="260" width="120" height="60" as="geometry" />
        </mxCell>
        <mxCell id="JdrCi-qgXTBV3TVLPhcE-15" style="edgeStyle=orthogonalEdgeStyle;rounded=0;orthogonalLoop=1;jettySize=auto;html=1;exitX=0;exitY=0.5;exitDx=0;exitDy=0;" edge="1" parent="1" source="JdrCi-qgXTBV3TVLPhcE-7" target="JdrCi-qgXTBV3TVLPhcE-12">
          <mxGeometry relative="1" as="geometry" />
        </mxCell>
        <mxCell id="JdrCi-qgXTBV3TVLPhcE-7" value="二维地图视图切换" style="rounded=1;whiteSpace=wrap;html=1;" vertex="1" parent="1">
          <mxGeometry x="440" y="400" width="120" height="60" as="geometry" />
        </mxCell>
        <mxCell id="JdrCi-qgXTBV3TVLPhcE-16" style="rounded=0;orthogonalLoop=1;jettySize=auto;html=1;exitX=0;exitY=0.5;exitDx=0;exitDy=0;entryX=1;entryY=0.5;entryDx=0;entryDy=0;" edge="1" parent="1" source="JdrCi-qgXTBV3TVLPhcE-12" target="JdrCi-qgXTBV3TVLPhcE-1">
          <mxGeometry relative="1" as="geometry" />
        </mxCell>
        <mxCell id="JdrCi-qgXTBV3TVLPhcE-12" value="二维地图初始化" style="rounded=1;whiteSpace=wrap;html=1;" vertex="1" parent="1">
          <mxGeometry x="240" y="400" width="120" height="60" as="geometry" />
        </mxCell>
        <mxCell id="JdrCi-qgXTBV3TVLPhcE-17" value="&lt;b&gt;&lt;font style=&quot;font-size: 16px;&quot;&gt;二三维云端在线计算切换&lt;/font&gt;&lt;/b&gt;" style="text;html=1;align=center;verticalAlign=middle;whiteSpace=wrap;rounded=0;" vertex="1" parent="1">
          <mxGeometry x="302.5" y="340" width="185" height="30" as="geometry" />
        </mxCell>
      </root>
    </mxGraphModel>
  </diagram>
</mxfile>
